<?xml version="1.0" standalone="no"?>
<!DOCTYPE svg PUBLIC "-//W3C//DTD SVG 20010904//EN"
 "http://www.w3.org/TR/2001/REC-SVG-20010904/DTD/svg10.dtd">
<svg version="1.0" xmlns="http://www.w3.org/2000/svg"
 width="400.000000pt" height="400.000000pt" viewBox="0 0 400.000000 400.000000"
 preserveAspectRatio="xMidYMid meet">
<metadata>
Created by potrace 1.14, written by Peter Selinger 2001-2017
</metadata>
<g transform="translate(0.000000,400.000000) scale(0.100000,-0.100000)"
fill="#000000" stroke="none">
<path d="M1780 3985 c-30 -6 -91 -18 -135 -24 -142 -22 -235 -50 -447 -132
-104 -40 -347 -185 -348 -206 0 -7 27 -48 60 -92 33 -44 60 -83 60 -86 0 -17
33 -38 45 -29 205 151 525 273 791 300 34 4 66 9 72 13 6 4 6 51 -1 139 -12
148 -4 138 -97 117z"/>
<path d="M2443 3943 c-7 -2 -13 -20 -13 -39 0 -19 -4 -34 -9 -34 -5 0 -12 -18
-15 -40 -3 -22 -9 -59 -12 -82 -4 -24 -11 -46 -17 -50 -6 -3 10 -12 34 -18
226 -63 449 -169 609 -289 58 -43 123 -97 145 -120 l39 -41 94 96 c51 53 92
99 90 103 -8 20 -164 149 -253 210 -183 125 -327 195 -540 264 -60 19 -117 37
-125 40 -8 3 -21 3 -27 0z m912 -513 c3 -5 1 -10 -4 -10 -6 0 -11 5 -11 10 0
6 2 10 4 10 3 0 8 -4 11 -10z"/>
<path d="M358 3131 c-79 -116 -164 -273 -208 -386 -48 -120 -80 -221 -80 -248
0 -13 -3 -27 -7 -31 -13 -13 -32 -119 -32 -182 l-1 -61 37 -6 c21 -4 79 -9
129 -13 l91 -7 6 54 c19 173 90 390 179 552 21 39 38 72 38 74 0 4 88 132 117
172 11 14 -1 28 -87 99 -55 45 -103 82 -108 82 -4 0 -37 -45 -74 -99z"/>
<path d="M3715 2961 c-6 -4 -46 -28 -90 -51 -44 -24 -81 -47 -83 -52 -2 -4
-10 -8 -18 -8 -20 0 -18 -11 14 -71 55 -105 119 -284 141 -394 7 -33 16 -76
21 -95 10 -38 32 -313 28 -345 -2 -15 3 -20 22 -21 14 -1 75 -3 135 -5 l110
-4 3 80 c1 44 -2 114 -7 155 l-8 75 -3 -60 c-3 -44 -5 -26 -11 65 -4 69 -13
146 -18 173 -6 26 -15 66 -20 90 -23 108 -65 222 -143 390 -40 83 -53 97 -73
78z"/>
<path d="M905 2020 l0 -890 197 0 198 0 -1 890 0 890 -197 0 -197 0 0 -890z
m22 833 c-3 -10 -5 -4 -5 12 0 17 2 24 5 18 2 -7 2 -21 0 -30z m0 -1085 c-1
-178 -2 -35 -2 317 0 352 1 497 2 323 2 -174 2 -462 0 -640z m350 -181 c-1
-194 -2 -32 -2 358 0 391 1 549 2 352 2 -197 2 -517 0 -710z m-350 -209 c-3
-8 -6 -5 -6 6 -1 11 2 17 5 13 3 -3 4 -12 1 -19z m0 -110 c-3 -7 -5 -2 -5 12
0 14 2 19 5 13 2 -7 2 -19 0 -25z m0 -105 c-2 -16 -4 -3 -4 27 0 30 2 43 4 28
2 -16 2 -40 0 -55z m353 17 c0 -5 -5 -10 -11 -10 -5 0 -7 5 -4 10 3 6 8 10 11
10 2 0 4 -4 4 -10z"/>
<path d="M1661 2388 c0 -629 8 -747 62 -888 75 -194 192 -305 392 -372 63 -21
88 -23 255 -23 147 0 198 4 250 18 233 65 396 228 454 457 10 36 22 81 28 100
7 23 12 238 15 633 l3 597 -195 0 -195 0 -3 -572 c-2 -399 -7 -591 -16 -633
-25 -126 -88 -220 -178 -265 -65 -33 -179 -39 -255 -14 -76 25 -148 101 -181
191 -42 115 -47 202 -47 766 l0 527 -194 0 -194 0 -1 -522z m26 450 c-2 -13
-4 -5 -4 17 -1 22 1 32 4 23 2 -10 2 -28 0 -40z m0 -756 c-1 -119 -2 -21 -2
218 0 239 1 337 2 217 2 -119 2 -315 0 -435z m350 -144 c-3 -8 -6 -5 -6 6 -1
11 2 17 5 13 3 -3 4 -12 1 -19z m0 -120 c-2 -13 -4 -3 -4 22 0 25 2 35 4 23 2
-13 2 -33 0 -45z m-350 -5 c-3 -10 -5 -2 -5 17 0 19 2 27 5 18 2 -10 2 -26 0
-35z m1060 -85 c-2 -13 -4 -5 -4 17 -1 22 1 32 4 23 2 -10 2 -28 0 -40z m330
-65 c-3 -10 -5 -2 -5 17 0 19 2 27 5 18 2 -10 2 -26 0 -35z m-350 -15 c-3 -7
-5 -2 -5 12 0 14 2 19 5 13 2 -7 2 -19 0 -25z m-1020 -15 c-3 -10 -5 -4 -5 12
0 17 2 24 5 18 2 -7 2 -21 0 -30z m20 -80 c-3 -10 -5 -4 -5 12 0 17 2 24 5 18
2 -7 2 -21 0 -30z m1310 -35 c-3 -8 -6 -5 -6 6 -1 11 2 17 5 13 3 -3 4 -12 1
-19z m-1290 -30 c-3 -8 -6 -5 -6 6 -1 11 2 17 5 13 3 -3 4 -12 1 -19z m900
-10 c-3 -8 -6 -5 -6 6 -1 11 2 17 5 13 3 -3 4 -12 1 -19z m-880 -30 c-3 -8 -6
-5 -6 6 -1 11 2 17 5 13 3 -3 4 -12 1 -19z m860 0 c-3 -8 -6 -5 -6 6 -1 11 2
17 5 13 3 -3 4 -12 1 -19z m365 -30 c-8 -8 -9 -4 -5 13 4 13 8 18 11 10 2 -7
-1 -18 -6 -23z m-1205 -10 c-3 -8 -6 -5 -6 6 -1 11 2 17 5 13 3 -3 4 -12 1
-19z m53 -66 c0 -3 -9 3 -20 13 -11 10 -20 23 -20 28 0 6 9 0 20 -13 11 -13
20 -25 20 -28z m1120 28 c0 -5 -7 -7 -15 -4 -8 4 -15 8 -15 10 0 2 7 4 15 4 8
0 15 -4 15 -10z m-110 -114 c0 -11 -19 -15 -25 -6 -3 5 1 10 9 10 9 0 16 -2
16 -4z m-813 -72 c-3 -3 -12 -4 -19 -1 -8 3 -5 6 6 6 11 1 17 -2 13 -5z"/>
<path d="M270 1693 c-49 -6 -146 -24 -193 -35 -42 -11 -47 -15 -42 -33 9 -27
22 -80 34 -135 46 -212 200 -522 359 -718 28 -35 57 -73 65 -85 15 -22 16 -21
83 43 38 36 84 78 102 93 l34 27 -41 47 c-60 68 -154 211 -206 311 -78 155
-155 378 -155 451 0 34 -5 38 -40 34z m-143 -325 c-3 -8 -6 -5 -6 6 -1 11 2
17 5 13 3 -3 4 -12 1 -19z m20 -60 c-3 -8 -6 -5 -6 6 -1 11 2 17 5 13 3 -3 4
-12 1 -19z m528 -448 c3 -5 1 -10 -4 -10 -6 0 -11 5 -11 10 0 6 2 10 4 10 3 0
8 -4 11 -10z"/>
<path d="M3623 1403 c-7 -16 -21 -50 -33 -78 -19 -46 -58 -124 -91 -185 -72
-131 -225 -319 -329 -407 -38 -32 -69 -62 -69 -66 -1 -5 36 -55 82 -113 l82
-105 150 153 c136 139 202 223 302 383 46 74 180 365 170 370 -1 0 -44 14 -95
30 -51 16 -96 33 -98 37 -3 4 -17 8 -32 8 -20 0 -30 -7 -39 -27z"/>
<path d="M1033 442 c-64 -97 -88 -140 -82 -146 2 -2 22 -12 44 -23 22 -11 65
-33 95 -50 118 -63 279 -125 405 -154 90 -21 192 -39 230 -39 22 0 74 -7 115
-16 81 -17 233 -15 365 5 39 6 108 16 155 22 97 13 229 48 343 91 77 30 85 36
68 53 -5 6 -28 55 -51 110 -47 113 -54 123 -72 108 -17 -14 -144 -57 -243 -83
-91 -24 -304 -50 -415 -50 -159 0 -359 34 -533 91 -113 37 -304 124 -338 155
-8 8 -19 14 -22 14 -4 0 -33 -39 -64 -88z"/>
</g>
</svg>
